<svg xmlns="http://www.w3.org/2000/svg" xmlns:xlink="http://www.w3.org/1999/xlink" width="120" height="70" viewBox="0 0 120 70"><defs><style>.a{fill:none;}.b{clip-path:url(#a);}.c{fill:#62a1d2;}.d{fill:#fff;}.e{fill:#b2d3ff;}.f{fill:#dbeeff;}.g{fill:#f65453;}.h{fill:#ff8f14;}</style><clipPath id="a"><rect class="a" width="120" height="70"/></clipPath></defs><g class="b"><rect class="a" width="120" height="70"/><g transform="translate(25 10)"><path class="c" d="M64.419,72H5.459A5.466,5.466,0,0,0,0,77.459v39.307a5.466,5.466,0,0,0,5.459,5.459h58.96a5.466,5.466,0,0,0,5.459-5.459V77.459A5.466,5.466,0,0,0,64.419,72Z" transform="translate(0 -72)"/><g transform="translate(8.735 8.735)"><path class="d" d="M79.286,149.1h-13.1A2.184,2.184,0,0,1,64,146.919v-8.735A2.184,2.184,0,0,1,66.184,136h13.1a2.184,2.184,0,0,1,2.184,2.184v8.735A2.184,2.184,0,0,1,79.286,149.1Z" transform="translate(-64 -136)"/></g><g transform="translate(8.735 30.572)"><path class="e" d="M71.643,301.459H66.184A2.184,2.184,0,0,1,64,299.276v-1.092A2.184,2.184,0,0,1,66.184,296h5.459a2.184,2.184,0,0,1,2.184,2.184v1.092A2.184,2.184,0,0,1,71.643,301.459Z" transform="translate(-64 -296)"/><g transform="translate(14.194)"><path class="e" d="M175.643,301.459h-5.459A2.184,2.184,0,0,1,168,299.276v-1.092A2.184,2.184,0,0,1,170.184,296h5.459a2.184,2.184,0,0,1,2.184,2.184v1.092A2.184,2.184,0,0,1,175.643,301.459Z" transform="translate(-168 -296)"/></g><g transform="translate(28.388)"><path class="e" d="M279.643,301.459h-5.459A2.184,2.184,0,0,1,272,299.276v-1.092A2.184,2.184,0,0,1,274.184,296h5.459a2.184,2.184,0,0,1,2.184,2.184v1.092A2.184,2.184,0,0,1,279.643,301.459Z" transform="translate(-272 -296)"/></g><g transform="translate(42.582)"><path class="e" d="M383.643,301.459h-5.459A2.184,2.184,0,0,1,376,299.276v-1.092A2.184,2.184,0,0,1,378.184,296h5.459a2.184,2.184,0,0,1,2.184,2.184v1.092A2.184,2.184,0,0,1,383.643,301.459Z" transform="translate(-376 -296)"/></g></g><g transform="translate(8.735 40.399)"><path class="f" d="M86.929,370.184H65.092a1.092,1.092,0,0,1,0-2.184H86.929a1.092,1.092,0,0,1,0,2.184Z" transform="translate(-64 -368)"/></g><g transform="translate(34.939 40.399)"><path class="f" d="M266.919,370.184h-9.827a1.092,1.092,0,1,1,0-2.184h9.827a1.092,1.092,0,0,1,0,2.184Z" transform="translate(-256 -368)"/></g><g transform="translate(38.791 8.735)"><path class="g" d="M295.658,146.919a6.551,6.551,0,1,1,0-8.736" transform="translate(-284.224 -136)"/></g><g transform="translate(13.102 8.735)"><path class="f" d="M109.1,143.643H98.184v-2.184H109.1v-2.184H98.184V136H96v13.1h2.184v-3.276H109.1Z" transform="translate(-96 -136)"/></g><g transform="translate(48.042 8.735)"><circle class="h" cx="6.551" cy="6.551" r="6.551"/></g></g></g></svg>