<svg xmlns="http://www.w3.org/2000/svg" xmlns:xlink="http://www.w3.org/1999/xlink" width="25" height="25" viewBox="0 0 25 25"><defs><style>.a{fill:none;}.b{clip-path:url(#a);}.c{fill:#b3aba6;}.d{fill:#fff;}</style><clipPath id="a"><rect class="a" width="25" height="25"/></clipPath></defs><g class="b"><rect class="c" width="25" height="25" rx="12.5"/><g transform="translate(6.875 5.625)"><path class="d" d="M78.02,1.9H76.511V1.666A1.668,1.668,0,0,0,74.845,0H72.539a1.668,1.668,0,0,0-1.666,1.666V1.9H69.363A1.365,1.365,0,0,0,68,3.268v1a.454.454,0,0,0,.454.454h.365l.61,8.517a.454.454,0,0,0,.454.428H77.5a.454.454,0,0,0,.454-.428l.61-8.517h.365a.454.454,0,0,0,.454-.454v-1A1.365,1.365,0,0,0,78.02,1.9Zm-6.239-.238a.758.758,0,0,1,.757-.757h2.306a.758.758,0,0,1,.757.757V1.9H71.781Zm-2.873,1.6a.455.455,0,0,1,.454-.454H78.02a.455.455,0,0,1,.454.454v.541H68.909Zm8.164,9.486H70.311L69.73,4.718h7.924Z" transform="translate(-68)"/><path class="d" d="M241.345,192.18a.454.454,0,0,0,.454-.454v-5.271a.454.454,0,1,0-.909,0v5.271A.454.454,0,0,0,241.345,192.18Z" transform="translate(-235.654 -180.365)"/><path class="d" d="M301.328,192.178h.02a.454.454,0,0,0,.454-.435l.3-5.271a.454.454,0,1,0-.908-.039l-.3,5.271A.454.454,0,0,0,301.328,192.178Z" transform="translate(-293.838 -180.364)"/><path class="d" d="M171.65,192.178h.02a.454.454,0,0,0,.435-.473l-.3-5.271a.454.454,0,1,0-.908.039l.3,5.271A.454.454,0,0,0,171.65,192.178Z" transform="translate(-167.776 -180.364)"/></g></g></svg>