<svg xmlns="http://www.w3.org/2000/svg" xmlns:xlink="http://www.w3.org/1999/xlink" width="120" height="70" viewBox="0 0 120 70"><defs><style>.a{fill:none;}.b{clip-path:url(#a);}.c{fill:#fff;}.d{fill:#464655;}.e{fill:#dbeeff;}.f{fill:#b2d3ff;}.g{fill:#414952;}.h{fill:#23272b;}.i{fill:#62a1d2;}.j{fill:#636978;}</style><clipPath id="a"><rect class="a" width="120" height="70"/></clipPath></defs><g class="b"><rect class="a" width="120" height="70"/><g transform="translate(28 8)"><rect class="c" width="57" height="31" transform="translate(3 3)"/><path class="d" d="M61.193,39.724H2.185A2.185,2.185,0,0,0,0,41.909V76.877H63.378V41.909A2.185,2.185,0,0,0,61.193,39.724ZM60.1,73.6H3.278V43H60.1Z" transform="translate(0 -39.724)"/><path class="e" d="M0,344.233a2.185,2.185,0,0,0,2.185,2.185H61.192a2.185,2.185,0,0,0,2.185-2.185v-4.371H0ZM31.689,341.5a1.639,1.639,0,1,1-1.639,1.639A1.639,1.639,0,0,1,31.689,341.5Z" transform="translate(0 -302.709)"/><path class="e" d="M177.655,415.947h19.4l-.683-5.464h-18.03Z" transform="translate(-155.664 -364.589)"/><path class="f" d="M168.817,454.621a1.093,1.093,0,0,0,0,2.186h19.669a1.093,1.093,0,0,0,0-2.186H168.817Z" transform="translate(-146.962 -403.263)"/><g transform="translate(22.674 38.792)"><path class="f" d="M183.172,395.013H201.2l-.273-2.185H183.445Z" transform="translate(-183.172 -387.911)"/><circle class="f" cx="1.639" cy="1.639" r="1.639" transform="translate(7.376)"/></g><g transform="translate(17.206 10.205)"><path class="e" d="M167.11,130.372H139.855a.855.855,0,0,1-.855-.855v-6.5a.855.855,0,0,1,.855-.855H167.11a.855.855,0,0,1,.855.855v6.5A.855.855,0,0,1,167.11,130.372Z" transform="translate(-139 -122.166)"/><path class="f" d="M269.628,122.166H256v8.206h13.628a.855.855,0,0,0,.855-.855v-6.5A.855.855,0,0,0,269.628,122.166Z" transform="translate(-241.517 -122.166)"/><path class="g" d="M184.663,148.4H163.183a.855.855,0,1,0,0,1.71h21.479a.855.855,0,1,0,0-1.71Z" transform="translate(-159.44 -145.154)"/><path class="h" d="M266.74,148.4H256v1.71h10.74a.855.855,0,1,0,0-1.71Z" transform="translate(-241.517 -145.154)"/><path class="i" d="M196.769,148.4H177.28v14.543a.855.855,0,0,0,.855.855h17.778a.855.855,0,0,0,.855-.855Z" transform="translate(-172.542 -145.154)"/><path class="i" d="M256,163.8h8.889a.855.855,0,0,0,.855-.855V148.4H256Z" transform="translate(-241.517 -145.154)"/><path class="h" d="M255.075,148.4h5.659v15.4h-5.659Z" transform="translate(-240.707 -145.154)"/><path class="j" d="M215.558,194.159a.855.855,0,0,1-.855-.855v-5.738a.855.855,0,0,1,1.711,0V193.3A.855.855,0,0,1,215.558,194.159Z" transform="translate(-205.332 -178.721)"/></g></g></g></svg>