<svg xmlns="http://www.w3.org/2000/svg" xmlns:xlink="http://www.w3.org/1999/xlink" width="65" height="45" viewBox="0 0 65 45"><defs><style>.a{fill:none;}.b{clip-path:url(#a);}.c{fill:#00548d;}.d{fill:#ea9700;}</style><clipPath id="a"><rect class="a" width="65" height="45"/></clipPath></defs><g class="b"><rect class="a" width="65" height="45"/><g transform="translate(4 -161.6)"><g transform="translate(5.733 175.6)"><path class="c" d="M188.473,180.4h-.806L184.8,196.525h4.569l2.777-16.125Z" transform="translate(-169.84 -179.862)"/><path class="c" d="M260.989,186.977c0-1.881-1.165-3.315-3.852-4.479-1.612-.806-2.6-1.254-2.6-2.06,0-.717.806-1.433,2.6-1.433a8.217,8.217,0,0,1,3.4.627l.448.179.717-3.494a11.362,11.362,0,0,0-4.121-.717c-4.479,0-7.7,2.24-7.7,5.464,0,2.419,2.24,3.673,4.031,4.479a4.87,4.87,0,0,1,2.149,1.426l-.268-.261a2.255,2.255,0,0,1,.358.435,1.166,1.166,0,0,1,.09.461c0,1.075-1.433,1.612-2.687,1.612a9.737,9.737,0,0,1-4.3-.9l-.627-.269L248,191.725l.014.006-.014.084a14.525,14.525,0,0,0,5.106.9c2.867,0,5.2-.806,6.539-2.24l-.052-.051A4.805,4.805,0,0,0,260.989,186.977Z" transform="translate(-225.963 -175.6)"/><path class="c" d="M60.774,195.757,67.325,181.2H62.487l-3.115,7.635-.02-.02-1.433,3.4-.358-2.24A12.986,12.986,0,0,0,51.29,182.9l.045.159-.134-.07,4.031,14.333h4.837l.04-.09h.049Z" transform="translate(-51.2 -180.573)"/><path class="c" d="M373.181,189.985l0,0-2.236-9.582h-3.494c-1.075,0-1.881.09-2.329,1.165l-6.719,14.96h4.837l.9-2.687h5.733l.537,2.687h4.3Zm-5.375-5.2.269,1.523s.843,3.792,1.057,4.837h-3.744c.235-.588.933-2.449,1.385-3.659l.063-.168.114-.3.23-.616s.09-.246.213-.571.28-.728.414-1.041Z" transform="translate(-324.001 -179.863)"/></g><path class="d" d="M11.964,189.17c.013.033.027.066.04.1l-.164-.686-1.448-6.839c-.269-1.075-1.075-1.344-2.06-1.344H0l2.859.877a17.032,17.032,0,0,1,8.129,6.037A11.67,11.67,0,0,1,12,189.358Z" transform="translate(0 -4.262)"/></g></g></svg>