<svg xmlns="http://www.w3.org/2000/svg" xmlns:xlink="http://www.w3.org/1999/xlink" width="65" height="45" viewBox="0 0 65 45"><defs><style>.a{fill:none;}.b{clip-path:url(#a);}.c{fill:#e2574c;}.d{fill:#f4b459;}</style><clipPath id="a"><rect class="a" width="65" height="45"/></clipPath></defs><g class="b"><rect class="a" width="65" height="45"/><g transform="translate(6 -48.719)"><path class="c" d="M33.623,71.535A16.811,16.811,0,1,1,16.811,54.719,16.812,16.812,0,0,1,33.623,71.535Z"/><path class="d" d="M126.248,54.719A16.719,16.719,0,0,0,116.2,58.072l.013,0a14.409,14.409,0,0,1,1.63,1.522l-3.5.056a17.291,17.291,0,0,0-1.518,1.781H119a15.626,15.626,0,0,1,1.3,1.675H111.71a16.755,16.755,0,0,0-.859,1.677h10.42a14.321,14.321,0,0,1,.723,1.623h-11.76a16.2,16.2,0,0,0-.468,1.779h12.72c.124.582.22,1.12.286,1.668H109.514c-.056.553-.084,1.115-.084,1.682h13.438a14.773,14.773,0,0,1-.1,1.682H109.514q.086.855.252,1.682h12.7c-.131.545-.283,1.093-.473,1.661H110.2a16.326,16.326,0,0,0,.632,1.678h10.443a15.319,15.319,0,0,1-.979,1.675H111.68A16.361,16.361,0,0,0,112.8,81.6l6.2.092a16.369,16.369,0,0,1-1.823,1.571c.034.027-.987,0-3-.035a16.812,16.812,0,1,0,12.071-28.511Z" transform="translate(-89.247)"/></g></g></svg>