<svg xmlns="http://www.w3.org/2000/svg" xmlns:xlink="http://www.w3.org/1999/xlink" width="65" height="45" viewBox="0 0 65 45"><defs><style>.a{fill:none;}.b{clip-path:url(#a);}.c{fill:#0f549d;}.d{fill:#b41f36;}.e{fill:#329947;}</style><clipPath id="a"><rect class="a" width="65" height="45"/></clipPath></defs><g class="b"><rect class="a" width="65" height="45"/><g transform="translate(-577.94 -182.851)"><path class="c" d="M590.94,196.256v9.9a2.938,2.938,0,0,0,2.942,2.088,2.606,2.606,0,0,0,2.741-2.589v-4.949h4.34v4.948c0,2.741-3.5,4.188-6.091,4.188a6.941,6.941,0,0,1-3.932-1.2v10.917h6.928a5.524,5.524,0,0,0,5.253-5.253V190.851h-6.7A5.133,5.133,0,0,0,590.94,196.256Z" transform="translate(0 0)"/><path class="d" d="M706.583,196.256v5.523a4.161,4.161,0,0,1,2.774-1.072h7.309v1.523a24.315,24.315,0,0,0-4.264-.609,3.274,3.274,0,0,0,0,6.547,22.765,22.765,0,0,0,4.264-.534v1.446h-7.309a4.162,4.162,0,0,1-2.774-1.072v11.548h6.928a5.525,5.525,0,0,0,5.254-5.253V190.851h-6.7A5.133,5.133,0,0,0,706.583,196.256Z" transform="translate(-101.939 0)"/><path class="e" d="M846.286,283.17a1.5,1.5,0,0,0-1.446-1.446h-2.97v2.894h2.97A1.5,1.5,0,0,0,846.286,283.17Z" transform="translate(-221.194 -80.104)"/><path class="e" d="M829.3,190.851a5.133,5.133,0,0,0-5.482,5.405v4.45H831.9a2.132,2.132,0,1,1,0,4.264,2.067,2.067,0,1,1,0,4.111H823.82v10.477h6.928A5.525,5.525,0,0,0,836,214.305V190.851Z" transform="translate(-205.283 0)"/><path class="e" d="M844.916,312.563H841.87v2.892h3.046a1.446,1.446,0,1,0,0-2.893Z" transform="translate(-221.194 -107.289)"/></g></g></svg>