<svg xmlns="http://www.w3.org/2000/svg" xmlns:xlink="http://www.w3.org/1999/xlink" width="120" height="70" viewBox="0 0 120 70"><defs><style>.a{fill:none;}.b{clip-path:url(#a);}.c{fill:#dbeeff;}.d{fill:#b2d3ff;}.e{fill:#173060;}.f{fill:#464655;}.g{fill:#62a1d2;}.h{fill:#5687ae;}.i{fill:#53dcff;}.j{fill:#b3f4ff;}</style><clipPath id="a"><rect class="a" width="120" height="70"/></clipPath></defs><g class="b"><rect class="a" width="120" height="70"/><g transform="translate(25 8)"><g transform="translate(4.419 9.943)"><rect class="c" width="61.87" height="43.088" transform="translate(0 0)"/></g><g transform="translate(4.419 46.402)"><rect class="d" width="61.87" height="6.629"/></g><g transform="translate(4.419 7.734)"><rect class="d" width="61.87" height="7.734" transform="translate(0 0)"/></g><g transform="translate(9.943 17.677)"><path class="e" d="M88.572,188H73.1a1.1,1.1,0,0,0-1.1,1.1v33.144H89.677V189.1A1.1,1.1,0,0,0,88.572,188Z" transform="translate(-72 -188)"/></g><g transform="translate(0 51.926)"><path class="f" d="M69.6,438.21H1.1a1.1,1.1,0,1,1,0-2.21H69.6a1.1,1.1,0,1,1,0,2.21Z" transform="translate(0 -436)"/></g><g transform="translate(2.21)"><path class="g" d="M19.314,73.258h0A3.314,3.314,0,0,1,16,69.943V62.21A2.21,2.21,0,0,1,18.21,60h4.419v9.943A3.314,3.314,0,0,1,19.314,73.258Z" transform="translate(-16 -60)"/></g><g transform="translate(8.839)"><path class="h" d="M67.314,73.258h0A3.314,3.314,0,0,1,64,69.943V60h6.629v9.943A3.314,3.314,0,0,1,67.314,73.258Z" transform="translate(-64 -60)"/></g><g transform="translate(15.467)"><path class="g" d="M115.314,73.258h0A3.314,3.314,0,0,1,112,69.943V60h6.629v9.943A3.314,3.314,0,0,1,115.314,73.258Z" transform="translate(-112 -60)"/></g><g transform="translate(22.096)"><path class="h" d="M163.314,73.258h0A3.314,3.314,0,0,1,160,69.943V60h6.629v9.943A3.314,3.314,0,0,1,163.314,73.258Z" transform="translate(-160 -60)"/></g><g transform="translate(28.725)"><path class="g" d="M211.314,73.258h0A3.314,3.314,0,0,1,208,69.943V60h6.629v9.943A3.314,3.314,0,0,1,211.314,73.258Z" transform="translate(-208 -60)"/></g><g transform="translate(35.354)"><path class="h" d="M259.314,73.258h0A3.314,3.314,0,0,1,256,69.943V60h6.629v9.943A3.314,3.314,0,0,1,259.314,73.258Z" transform="translate(-256 -60)"/></g><g transform="translate(41.983)"><path class="g" d="M307.314,73.258h0A3.314,3.314,0,0,1,304,69.943V60h6.629v9.943A3.314,3.314,0,0,1,307.314,73.258Z" transform="translate(-304 -60)"/></g><g transform="translate(48.612)"><path class="h" d="M355.314,73.258h0A3.314,3.314,0,0,1,352,69.943V60h6.629v9.943A3.314,3.314,0,0,1,355.314,73.258Z" transform="translate(-352 -60)"/></g><g transform="translate(55.241)"><path class="g" d="M403.315,73.258h0A3.314,3.314,0,0,1,400,69.943V60h6.629v9.943A3.314,3.314,0,0,1,403.315,73.258Z" transform="translate(-400 -60)"/></g><g transform="translate(61.87)"><path class="h" d="M451.314,73.258h0A3.314,3.314,0,0,1,448,69.943V60h4.419a2.21,2.21,0,0,1,2.21,2.21v7.734A3.314,3.314,0,0,1,451.314,73.258Z" transform="translate(-448 -60)"/></g><g transform="translate(32.04 18.782)"><path class="i" d="M260.725,196H233.1a1.1,1.1,0,0,0-1.1,1.1v22.1a1.1,1.1,0,0,0,1.1,1.1h27.62a1.1,1.1,0,0,0,1.1-1.1V197.1A1.1,1.1,0,0,0,260.725,196Z" transform="translate(-232 -196)"/></g><g transform="translate(31.124 18.782)"><path class="j" d="M249.155,220.306h5.857a1.1,1.1,0,0,0,1.1-1.1v-1.308L234.224,196h-7.937a1.087,1.087,0,0,0-.915.523Z" transform="translate(-225.372 -196)"/></g><g transform="translate(30.935 17.677)"><g transform="translate(0 0)"><path class="e" d="M253.83,214.516H226.21a2.213,2.213,0,0,1-2.21-2.21v-22.1a2.213,2.213,0,0,1,2.21-2.21h27.62a2.213,2.213,0,0,1,2.21,2.21v22.1A2.213,2.213,0,0,1,253.83,214.516ZM226.21,190.21v22.1h27.623l0-22.1Z" transform="translate(-224 -188)"/></g></g><g transform="translate(12.153 19.887)"><path class="i" d="M100.153,216.153H89.1a1.1,1.1,0,0,1-1.1-1.1V205.1a1.1,1.1,0,0,1,1.1-1.1h11.048a1.1,1.1,0,0,1,1.1,1.1v9.943A1.1,1.1,0,0,1,100.153,216.153Z" transform="translate(-88 -204)"/></g></g></g></svg>