<svg xmlns="http://www.w3.org/2000/svg" xmlns:xlink="http://www.w3.org/1999/xlink" width="22" height="22" viewBox="0 0 22 22"><defs><style>.a{fill:none;}.b{clip-path:url(#a);}.c{fill:#62a1d2;}.d{fill:#fff;}</style><clipPath id="a"><rect class="a" width="22" height="22"/></clipPath></defs><g class="b"><path class="c" d="M22,11A11,11,0,1,0,11,22,11,11,0,0,0,22,11Z" transform="translate(0 -0.003)"/><path class="d" d="M138.216,85.816a3.513,3.513,0,0,1,.6-1.874,4.579,4.579,0,0,1,1.737-1.572,5.476,5.476,0,0,1,2.664-.623,5.7,5.7,0,0,1,2.5.521,4.05,4.05,0,0,1,1.674,1.416,3.469,3.469,0,0,1,.59,1.947,3,3,0,0,1-.337,1.451,4.44,4.44,0,0,1-.8,1.076q-.464.453-1.664,1.524a6.758,6.758,0,0,0-.532.531,2.152,2.152,0,0,0-.3.419,2.04,2.04,0,0,0-.151.38q-.054.19-.161.667a1.085,1.085,0,0,1-1.161,1.012,1.188,1.188,0,0,1-.854-.331,1.3,1.3,0,0,1-.346-.983,3.447,3.447,0,0,1,.927-2.468,15.415,15.415,0,0,1,1.132-1.076q.624-.545.9-.823a2.791,2.791,0,0,0,.468-.618,1.492,1.492,0,0,0,.19-.74,1.719,1.719,0,0,0-.581-1.314,2.123,2.123,0,0,0-1.5-.535,2.075,2.075,0,0,0-1.581.54,4.305,4.305,0,0,0-.859,1.592q-.332,1.1-1.259,1.1a1.238,1.238,0,0,1-.922-.385A1.175,1.175,0,0,1,138.216,85.816Zm4.762,10.67a1.538,1.538,0,0,1-1.039-.385,1.347,1.347,0,0,1-.444-1.076,1.384,1.384,0,0,1,.429-1.032,1.452,1.452,0,0,1,1.054-.419,1.431,1.431,0,0,1,1.454,1.451,1.357,1.357,0,0,1-.439,1.071A1.484,1.484,0,0,1,142.978,96.486Z" transform="translate(-132.095 -78.117)"/></g></svg>