<svg xmlns="http://www.w3.org/2000/svg" xmlns:xlink="http://www.w3.org/1999/xlink" width="15" height="15" viewBox="0 0 15 15"><defs><style>.a{fill:none;}.b{clip-path:url(#a);}.c{fill:#f65453;}</style><clipPath id="a"><rect class="a" width="15" height="15"/></clipPath></defs><g class="b"><path class="c" d="M143.027,135.527a7.5,7.5,0,1,0,7.5,7.5A7.5,7.5,0,0,0,143.027,135.527Zm0,13.594a6.094,6.094,0,1,1,6.094-6.094A6.094,6.094,0,0,1,143.027,149.121Zm0-10.305c-.537,0-.943.281-.943.733V143.7c0,.454.406.733.943.733s.944-.291.944-.733v-4.153C143.971,139.107,143.552,138.816,143.027,138.816Zm0,6.555a.936.936,0,1,0,.936.936A.937.937,0,0,0,143.027,145.371Z" transform="translate(-135.527 -135.527)"/></g></svg>